<?xml version="1.0" encoding="utf-8"?>
<!-- Generator: Adobe Illustrator 18.1.0, SVG Export Plug-In . SVG Version: 6.00 Build 0)  -->
<!DOCTYPE svg PUBLIC "-//W3C//DTD SVG 1.1//EN" "http://www.w3.org/Graphics/SVG/1.1/DTD/svg11.dtd">
<svg version="1.1" id="Layer_1" xmlns="http://www.w3.org/2000/svg" xmlns:xlink="http://www.w3.org/1999/xlink" x="0px" y="0px"
	 viewBox="0 0 540 540" enable-background="new 0 0 540 540" xml:space="preserve">
<g id="Layer_2" display="none">
	
		<linearGradient id="SVGID_1_" gradientUnits="userSpaceOnUse" x1="-264.8127" y1="-138.9218" x2="525.3052" y2="-138.9218" gradientTransform="matrix(2.2727 0 0 2.2727 306 1770.5577)">
		<stop  offset="0" style="stop-color:#E6E6E6"/>
		<stop  offset="0.5" style="stop-color:#ECF0F1"/>
		<stop  offset="1" style="stop-color:#F2F2F2"/>
	</linearGradient>
	<rect x="-295.8" y="62.1" display="inline" fill="url(#SVGID_1_)" width="1795.7" height="2785.4"/>
</g>
<g id="Layer_1_1_">
	<g>
		<circle fill="#3498DB" cx="270" cy="270" r="270"/>
		<g>
			<path fill="#1B2630" d="M350.5,204.1c47.9,64.6,95.5,120.5,141.3,182.3c-26.8-24.5-53.9-42.8-83.4-69.8
				c-2.2,4.8-4.3,8.4-6.8,12.3c-8.2,13-18.6,22.5-34.3,23.7c-5.2,0.2-11.1-1.4-16.2-3.6c-10.2-4.6-20-10-29.8-15.5
				c-13.4-7.3-27.3-13.2-43-11.1c-8.9,1.2-17.5,2.7-26.1,4.1c-14.3,2.2-27.8,0.2-38.2-10.7c-9.1-9.3-17.9-18.9-27.1-28.2
				c-15.5-15.9-34.8-19.6-56.1-17.7c-15,1.4-24.5,2.5-40.2,9.7c-15,8.2-30,13.6-42.7,20.5c46.6-52.3,94.3-97.5,142.5-151.6
				c5.3,8.2,10.7,16.6,15.9,24.5c20,30.9,39.5,62.5,62.7,91.4c2,2.5,4.3,4.8,6.6,7.3c2.7,2.9,5.5,3.4,8.7,0
				c18.4-18.9,36.8-37.5,55.2-56.1C343.4,211.8,346.8,208,350.5,204.1z"/>
			<path fill="#34495E" d="M381.8,238.2c-8.9,5.5-19.1,8.7-30.2,8.7c-14.3,0-27.3-5.2-37.3-13.8c-10,10.2-20,20.3-30,30.5
				c-3.2,3.4-5.7,2.9-8.7,0c-2.2-2.2-4.6-4.8-6.6-7.3c-17-21.1-32-43.8-46.8-66.6c-9.3,6.6-20.7,10.2-32.7,10.2
				c-15,0-28.6-5.7-38.9-15.2c-34.7,38.9-69,77.2-102.4,114.7c12.8-6.8,27.8-15,42.8-23.2c12.8-7,25.2-14.1,40.2-15.2
				c21.1-1.8,40.4,1.8,56.1,17.7c9.1,9.3,17.9,18.9,27.1,28.2c10.7,10.9,23.9,13,38.2,10.7c8.7-1.4,17.5-2.9,26.1-4.1
				c15.7-2,29.5,3.9,43,11.1c9.7,5.3,19.6,10.9,29.8,15.5c5,2.2,10.7,4.1,16.2,3.6c15.7-0.9,26.4-10,33.4-23.7
				c1.8-3.6,3.6-7.5,5.7-12.3c29.5,27.1,58.4,53.7,85.2,78.2C455.9,338,419.1,288.2,381.8,238.2z"/>
			<path d="M222.3,189.5c-5.5-8.2-10.7-16.6-15.9-24.8c-5.3-8.2-10.4-16.4-15.9-24.5c-13.2,14.7-26.7,29.5-39.8,44.5
				c10.2,9.3,23.9,15.2,38.9,15.2C201.8,199.8,212.9,195.9,222.3,189.5z"/>
			<path fill="#ECF0F1" d="M222.3,189.5c-5.5-8.2-10.7-16.6-15.9-24.8c-5.3-8.2-10.4-16.4-15.9-24.5c-13.2,14.7-26.7,29.5-39.8,44.5
				c10.2,9.3,23.9,15.2,38.9,15.2C201.8,199.8,212.9,195.9,222.3,189.5z"/>
			<path d="M381.8,238.2c-10.4-14.1-20.9-28.2-31.4-42.5c-3.6,3.9-7,8-10.9,11.6c-8.4,8.7-16.8,17-25.2,25.7
				c10,8.7,23,13.8,37.3,13.8C362.7,246.8,373.2,243.6,381.8,238.2z"/>
			<path fill="#ECF0F1" d="M381.8,238.2c-10.4-14.1-20.9-28.2-31.4-42.5c-3.6,3.9-7,8-10.9,11.6c-8.4,8.7-16.8,17-25.2,25.7
				c10,8.7,23,13.8,37.3,13.8C362.7,246.8,373.2,243.6,381.8,238.2z"/>
		</g>
	</g>
</g>
</svg>
